<?xml version="1.0" ?><!DOCTYPE svg  PUBLIC '-//W3C//DTD SVG 1.1//EN'  'http://www.w3.org/Graphics/SVG/1.1/DTD/svg11.dtd'><svg height="6.82666in" style="shape-rendering:geometricPrecision; text-rendering:geometricPrecision; image-rendering:optimizeQuality; fill-rule:evenodd; clip-rule:evenodd" viewBox="0 0 6827 6827" width="6.82666in" xml:space="preserve" xmlns="http://www.w3.org/2000/svg" xmlns:xlink="http://www.w3.org/1999/xlink"><defs><style type="text/css">
   <![CDATA[
    .fil3 {fill:none}
    .fil2 {fill:#F6FFFD}
    .fil1 {fill:#FAC23C}
    .fil0 {fill:#013668;fill-rule:nonzero}
   ]]>
  </style></defs><g id="Layer_x0020_1"><g id="_271571792"><path class="fil0" d="M3413 853c707,0 1347,287 1810,750 463,463 750,1103 750,1810 0,707 -287,1347 -750,1810 -463,463 -1103,750 -1810,750 -707,0 -1347,-287 -1810,-750 -463,-463 -750,-1103 -750,-1810 0,-707 287,-1347 750,-1810 463,-463 1103,-750 1810,-750zm1697 863c-434,-434 -1034,-703 -1697,-703 -663,0 -1263,269 -1697,703 -434,434 -703,1034 -703,1697 0,663 269,1263 703,1697 434,434 1034,703 1697,703 663,0 1263,-269 1697,-703 434,-434 703,-1034 703,-1697 0,-663 -269,-1263 -703,-1697z"/><path class="fil0" d="M2519 2288c115,0 218,46 293,121 75,75 121,179 121,293 0,115 -46,218 -121,293 -75,75 -179,121 -293,121 -115,0 -218,-46 -293,-121 -75,-75 -121,-179 -121,-293 0,-115 46,-218 121,-293 75,-75 179,-121 293,-121zm180 235c-46,-46 -110,-75 -180,-75 -70,0 -134,29 -180,75 -46,46 -75,110 -75,180 0,70 29,134 75,180 46,46 110,75 180,75 70,0 134,-29 180,-75 46,-46 75,-110 75,-180 0,-70 -29,-134 -75,-180z"/><path class="fil0" d="M4308 2288c115,0 218,46 293,121 75,75 121,179 121,293 0,115 -46,218 -121,293 -75,75 -179,121 -293,121 -115,0 -218,-46 -293,-121 -75,-75 -121,-179 -121,-293 0,-115 46,-218 121,-293 75,-75 179,-121 293,-121zm180 235c-46,-46 -110,-75 -180,-75 -70,0 -134,29 -180,75 -46,46 -75,110 -75,180 0,70 29,134 75,180 46,46 110,75 180,75 70,0 134,-29 180,-75 46,-46 75,-110 75,-180 0,-70 -29,-134 -75,-180z"/><path class="fil0" d="M2457 4719c-19,40 -66,57 -106,38 -40,-19 -57,-66 -38,-106 277,-594 702,-489 1122,-384 364,91 725,181 933,-335 16,-41 63,-61 104,-44 41,16 61,63 44,104 -260,645 -687,538 -1119,431 -357,-89 -718,-179 -940,296z"/></g><path class="fil1" d="M2313 4652c277,-594 702,-489 1122,-384 364,91 725,181 933,-335 16,-41 63,-61 104,-44 41,16 61,63 44,104 -260,645 -687,538 -1119,431 -357,-89 -718,-179 -940,296 -19,40 -66,57 -106,38 -40,-19 -57,-66 -38,-106zm206 -2364c115,0 218,46 293,121 75,75 121,179 121,293 0,115 -46,218 -121,293 -75,75 -179,121 -293,121 -115,0 -218,-46 -293,-121 -75,-75 -121,-179 -121,-293 0,-115 46,-218 121,-293 75,-75 179,-121 293,-121zm2591 -572c-434,-434 -1034,-703 -1697,-703 -663,0 -1263,269 -1697,703 -434,434 -703,1034 -703,1697 0,663 269,1263 703,1697 434,434 1034,703 1697,703 663,0 1263,-269 1697,-703 434,-434 703,-1034 703,-1697 0,-663 -269,-1263 -703,-1697zm-1096 693c75,-75 179,-121 293,-121 115,0 218,46 293,121 75,75 121,179 121,293 0,115 -46,218 -121,293 -75,75 -179,121 -293,121 -115,0 -218,-46 -293,-121 -75,-75 -121,-179 -121,-293 0,-115 46,-218 121,-293z"/><path class="fil2" d="M2699 2883c46,-46 75,-110 75,-180 0,-70 -29,-134 -75,-180 -46,-46 -110,-75 -180,-75 -70,0 -134,29 -180,75 -46,46 -75,110 -75,180 0,70 29,134 75,180 46,46 110,75 180,75 70,0 134,-29 180,-75z"/><path class="fil2" d="M4053 2703c0,70 29,134 75,180 46,46 110,75 180,75 70,0 134,-29 180,-75 46,-46 75,-110 75,-180 0,-70 -29,-134 -75,-180 -46,-46 -110,-75 -180,-75 -70,0 -134,29 -180,75 -46,46 -75,110 -75,180z"/></g><rect class="fil3" height="6827" width="6827"/></svg>